<svg xmlns="http://www.w3.org/2000/svg" version="1.1" xmlns:xlink="http://www.w3.org/1999/xlink"
    xmlns:svgjs="http://svgjs.dev/svgjs" width="1000" height="305" viewBox="0 0 1000 305">
    <g transform="matrix(1,0,0,1,-0.6060606060606801,0.4069766327152138)">
        <svg viewBox="0 0 396 121" data-background-color="#ffffff"
            preserveAspectRatio="xMidYMid meet" height="305" width="1000"
            xmlns="http://www.w3.org/2000/svg" xmlns:xlink="http://www.w3.org/1999/xlink">
            <g id="tight-bounds"
                transform="matrix(1,0,0,1,0.24000000000003752,-0.16145630347062934)">
                <svg viewBox="0 0 395.5199999999999 121.32291260694126" height="121.32291260694126"
                    width="395.5199999999999">
                    <g>
                        <svg viewBox="0 0 600.5730365290807 184.22145536231545"
                            height="121.32291260694126" width="395.5199999999999">
                            <g transform="matrix(1,0,0,1,203.07543652908075,68.65497833530651)">
                                <svg viewBox="0 0 397.4975999999999 46.911498691702434"
                                    height="46.911498691702434" width="397.4975999999999">
                                    <g id="textblocktransform">
                                        <svg viewBox="0 0 397.4975999999999 46.911498691702434"
                                            height="46.911498691702434" width="397.4975999999999"
                                            id="textblock">
                                            <g>
                                                <rect width="397.4975999999999"
                                                    height="2.2026546303554557" x="0"
                                                    y="27.019560863836233" fill="#ff851b"
                                                    opacity="1" stroke-width="0"
                                                    stroke="transparent" fill-opacity="1"
                                                    class="rect-o-0"
                                                    data-fill-palette-color="primary" rx="1%"
                                                    id="o-0" data-palette-color="#ff851b"></rect>
                                            </g>
                                            <g transform="matrix(1,0,0,1,0.9887999999999693,0)">
                                                <svg viewBox="0 0 395.52 24.424810644831116"
                                                    height="24.424810644831116" width="395.52">
                                                    <g transform="matrix(1,0,0,1,0,0)">
                                                        <svg width="395.52"
                                                            viewBox="0.75 -35.599998474121094 606.469970703125 36.19999694824219"
                                                            height="24.424810644831116"
                                                            data-palette-color="#ff851b">
                                                            <g class="wordmark-text-0"
                                                                data-fill-palette-color="primary"
                                                                id="text-0">
                                                                <path
                                                                    d="M21.4 0L13.55 0 0.75-35 7.6-35 17.5-6.55 27.45-35 34.2-35 21.4 0ZM42.8 0L36.1 0 48.9-35 56.1-35 68.9 0 62.1 0 59.3-8.1 45.65-8.1 42.8 0ZM52.45-27.65L47.4-13.1 57.55-13.1 52.45-27.65ZM85.34 0L73.4 0 73.4-35 85.34-35Q91.5-35 95.47-32.83 99.45-30.65 101.37-26.73 103.3-22.8 103.3-17.5L103.3-17.5Q103.3-12.2 101.37-8.28 99.45-4.35 95.47-2.18 91.5 0 85.34 0L85.34 0ZM79.8-29.55L79.8-5.5 85.05-5.5Q89.45-5.5 92-6.93 94.55-8.35 95.65-11.03 96.75-13.7 96.75-17.5L96.75-17.5Q96.75-21.25 95.65-23.95 94.55-26.65 92-28.1 89.45-29.55 85.05-29.55L85.05-29.55 79.8-29.55ZM126.94 0L119.09 0 106.29-35 113.14-35 123.04-6.55 132.99-35 139.74-35 126.94 0ZM148.34 0L141.64 0 154.44-35 161.64-35 174.44 0 167.64 0 164.84-8.1 151.19-8.1 148.34 0ZM157.99-27.65L152.94-13.1 163.09-13.1 157.99-27.65ZM190.89 0L178.94 0 178.94-35 190.89-35Q197.04-35 201.01-32.83 204.99-30.65 206.91-26.73 208.84-22.8 208.84-17.5L208.84-17.5Q208.84-12.2 206.91-8.28 204.99-4.35 201.01-2.18 197.04 0 190.89 0L190.89 0ZM185.34-29.55L185.34-5.5 190.59-5.5Q194.99-5.5 197.54-6.93 200.09-8.35 201.19-11.03 202.29-13.7 202.29-17.5L202.29-17.5Q202.29-21.25 201.19-23.95 200.09-26.65 197.54-28.1 194.99-29.55 190.59-29.55L190.59-29.55 185.34-29.55ZM220.89 0L214.49 0 214.49-35 220.89-35 220.89 0Z"
                                                                    fill="#ff851b"
                                                                    data-fill-palette-color="primary"></path>
                                                                <path
                                                                    d="M245.34 0.6L245.34 0.6Q240.24 0.6 237.16-2.27 234.09-5.15 234.09-10.45L234.09-10.45 240.49-10.45Q240.54-8 241.64-6.55 242.74-5.1 245.19-5.1L245.19-5.1Q247.49-5.1 248.54-6.48 249.59-7.85 249.59-10.1L249.59-10.1 249.59-35 255.99-35 255.99-10.1Q255.99-4.95 253.11-2.18 250.24 0.6 245.34 0.6ZM267.24 0L260.54 0 273.34-35 280.54-35 293.34 0 286.54 0 283.74-8.1 270.09-8.1 267.24 0ZM276.89-27.65L271.84-13.1 281.99-13.1 276.89-27.65ZM313.13 0.6L313.13 0.6Q308.18 0.6 304.48-1.65 300.78-3.9 298.73-7.93 296.68-11.95 296.68-17.3L296.68-17.3Q296.68-22.7 298.81-26.83 300.93-30.95 304.86-33.27 308.78-35.6 314.18-35.6L314.18-35.6Q320.33-35.6 324.38-32.65 328.43-29.7 329.63-24.5L329.63-24.5 322.48-24.5Q321.68-26.95 319.58-28.33 317.48-29.7 314.18-29.7L314.18-29.7Q308.93-29.7 306.08-26.38 303.23-23.05 303.23-17.25L303.23-17.25Q303.23-11.45 306.06-8.28 308.88-5.1 313.73-5.1L313.73-5.1Q318.48-5.1 320.91-7.68 323.33-10.25 323.83-14.45L323.83-14.45 314.98-14.45 314.98-19.25 330.28-19.25 330.28 0 324.38 0 323.88-4.6Q322.18-2.1 319.63-0.75 317.08 0.6 313.13 0.6ZM351.93 0L345.53 0 345.53-12.45 333.78-35 341.03-35 348.78-18.85 356.48-35 363.63-35 351.93-12.45 351.93 0ZM372.18 0L365.48 0 378.28-35 385.48-35 398.28 0 391.48 0 388.68-8.1 375.03-8.1 372.18 0ZM381.83-27.65L376.78-13.1 386.93-13.1 381.83-27.65Z"
                                                                    fill="#604330"
                                                                    data-fill-palette-color="secondary"></path>
                                                                <path
                                                                    d="M419.98 0L413.58 0 413.58-35 421.18-35 432.33-12.8 443.33-35 450.93-35 450.93 0 444.53 0 444.53-24.15 434.78-5 429.73-5 419.98-24.15 419.98 0ZM474.13 0.6L474.13 0.6Q468.88 0.6 464.95-1.7 461.03-4 458.8-8.08 456.58-12.15 456.58-17.5L456.58-17.5Q456.58-22.85 458.8-26.93 461.03-31 464.95-33.3 468.88-35.6 474.13-35.6L474.13-35.6Q479.33-35.6 483.28-33.3 487.23-31 489.43-26.93 491.63-22.85 491.63-17.5L491.63-17.5Q491.63-12.15 489.43-8.08 487.23-4 483.28-1.7 479.33 0.6 474.13 0.6ZM474.13-5.15L474.13-5.15Q479.13-5.15 482.1-8.45 485.08-11.75 485.08-17.5L485.08-17.5Q485.08-23.25 482.1-26.55 479.13-29.85 474.13-29.85L474.13-29.85Q469.13-29.85 466.13-26.55 463.13-23.25 463.13-17.5L463.13-17.5Q463.13-11.75 466.13-8.45 469.13-5.15 474.13-5.15ZM515.27 0L507.42 0 494.62-35 501.47-35 511.37-6.55 521.32-35 528.07-35 515.27 0ZM538.62 0L532.22 0 532.22-35 538.62-35 538.62 0ZM560.87 0L554.47 0 554.47-12.45 542.72-35 549.97-35 557.72-18.85 565.42-35 572.57-35 560.87-12.45 560.87 0ZM581.12 0L574.42 0 587.22-35 594.42-35 607.22 0 600.42 0 597.62-8.1 583.97-8.1 581.12 0ZM590.77-27.65L585.72-13.1 595.87-13.1 590.77-27.65Z"
                                                                    fill="#ff851b"
                                                                    data-fill-palette-color="primary"></path>
                                                            </g>
                                                        </svg>
                                                    </g>
                                                </svg>
                                            </g>
                                            <g transform="matrix(1,0,0,1,0,31.816965713196804)">
                                                <svg viewBox="0 0 395.52 15.09453297850563"
                                                    height="15.09453297850563" width="395.52">
                                                    <g transform="matrix(1,0,0,1,0,0)">
                                                        <svg width="395.52"
                                                            viewBox="3.8299999237060547 -36.18000030517578 992.2099609375 37.86000061035156"
                                                            height="15.09453297850563"
                                                            data-palette-color="#604330">
                                                            <path
                                                                d="M4.27-0.37L3.86-9.08Q3.86-9.11 3.85-9.13 3.83-9.16 3.83-9.18L3.83-9.18Q3.83-9.59 4.27-9.59L4.27-9.59Q4.49-9.59 4.76-9.38L4.76-9.38Q6.08-8.13 7.69-7.4 9.3-6.67 11.21-6.67L11.21-6.67Q11.72-6.67 12.38-6.77 13.04-6.88 13.62-7.14 14.21-7.4 14.61-7.81 15.01-8.23 15.01-8.86L15.01-8.86Q15.01-9.57 14.67-10.13 14.33-10.69 13.77-11.08L13.77-11.08Q13.55-11.23 13.11-11.57 12.67-11.91 12.11-12.35 11.55-12.79 10.94-13.29 10.33-13.79 9.78-14.25 9.23-14.7 8.79-15.06 8.35-15.43 8.13-15.63L8.13-15.63Q6.69-16.7 5.85-17.8 5-18.9 4.57-20.09 4.13-21.29 4-22.57 3.88-23.85 3.88-25.29L3.88-25.29Q3.88-27.44 4.91-29.37 5.93-31.3 7.8-32.73 9.67-34.16 12.28-35 14.89-35.84 18.09-35.84L18.09-35.84Q18.48-35.84 19.26-35.75 20.04-35.67 20.98-35.47 21.92-35.28 22.9-34.94 23.88-34.59 24.68-34.06L24.68-34.06Q24.95-33.86 25.11-33.67 25.27-33.47 25.32-33.06L25.32-33.06Q25.44-31.08 25.51-29.16 25.59-27.25 25.71-25.1L25.71-25.1Q25.71-24.68 25.54-24.55 25.37-24.41 25.1-24.41L25.1-24.41Q24.83-24.41 24.68-24.56L24.68-24.56Q23.97-25.27 23.22-25.95 22.46-26.64 21.63-27.16 20.8-27.69 19.86-28 18.92-28.32 17.82-28.32L17.82-28.32Q17.16-28.32 16.5-28.21 15.84-28.1 15.31-27.81 14.77-27.51 14.44-27 14.11-26.49 14.11-25.71L14.11-25.71Q14.11-24.88 14.32-24.27 14.53-23.66 15.36-23.12L15.36-23.12 21.22-19.14Q22.83-17.99 23.83-16.86 24.83-15.72 25.39-14.6 25.95-13.48 26.16-12.39 26.37-11.3 26.37-10.25L26.37-10.25Q26.37-8.54 25.81-7.03 25.24-5.52 24.27-4.24 23.29-2.95 21.98-1.94 20.68-0.93 19.19-0.21 17.7 0.51 16.1 0.89 14.5 1.27 12.96 1.27L12.96 1.27Q11.77 1.27 10.61 1.23 9.45 1.2 8.35 1.04 7.25 0.88 6.23 0.55 5.2 0.22 4.27-0.37L4.27-0.37ZM76.27-32.15L76.27-32.15Q76.27-33.03 76.43-33.36 76.59-33.69 77.08-33.81L77.08-33.81 85.48-35.84Q85.8-35.94 86.14-35.94L86.14-35.94Q86.48-35.94 86.6-35.73 86.72-35.52 86.72-34.89L86.72-34.89 86.43-31.05Q86.31-29.37 86.16-27.71 86.02-26.05 85.72-24.8L85.72-24.8 85.28-21.34Q85.09-19.8 84.92-18.01 84.75-16.21 84.55-13.99L84.55-13.99 83.4-1.95Q83.38-1.73 83.31-1.51 83.23-1.29 82.99-1.2L82.99-1.2Q82.82-1.12 82.19-0.88 81.57-0.63 80.72-0.32 79.86 0 78.89 0.35 77.91 0.71 77.03 1 76.15 1.29 75.47 1.49 74.79 1.68 74.54 1.68L74.54 1.68Q74.2 1.68 73.94 1.5 73.69 1.32 73.69 0.81L73.69 0.81Q73.69-2.15 74.03-5.24 74.37-8.33 74.64-11.38L74.64-11.38Q74.69-11.72 74.68-12.01 74.66-12.3 74.71-12.65L74.71-12.65 65.78-12.65 64.78-1.95Q64.75-1.73 64.69-1.53 64.63-1.32 64.36-1.2L64.36-1.2Q64.26-1.15 63.4-0.84 62.53-0.54 61.39-0.13 60.26 0.27 59.15 0.67 58.04 1.07 57.45 1.29L57.45 1.29Q57.16 1.42 56.73 1.55 56.3 1.68 55.89 1.68L55.89 1.68Q55.55 1.68 55.29 1.49 55.03 1.29 55.03 0.78L55.03 0.78Q55.03-0.39 55.12-1.89 55.21-3.39 55.33-5.04 55.45-6.69 55.62-8.42 55.79-10.16 55.96-11.84L55.96-11.84 56.01-12.55Q54.03-12.55 53.14-12.66 52.25-12.77 52.25-13.23L52.25-13.23Q52.25-13.55 52.62-14.06L52.62-14.06Q53.11-14.75 53.75-15.71 54.4-16.67 55-17.61 55.6-18.55 56.07-19.3 56.55-20.04 56.69-20.26L56.69-20.26 57.26-26.15Q57.26-26.2 57.3-26.88 57.35-27.56 57.43-28.5 57.5-29.44 57.59-30.44 57.67-31.45 57.74-32.15L57.74-32.15Q57.79-33.01 57.88-33.35 57.96-33.69 58.45-33.81L58.45-33.81 66.75-35.84Q67.07-35.94 67.41-35.94L67.41-35.94Q67.75-35.94 67.88-35.73 68-35.52 68-34.89L68-34.89Q67.83-33.13 67.73-31.69 67.63-30.25 67.52-29 67.41-27.76 67.29-26.64 67.17-25.51 66.95-24.34L66.95-24.34 66.46-20.56 75.32-20.65Q75.54-23.9 75.81-26.17 76.08-28.44 76.15-29.76L76.15-29.76Q76.23-31.01 76.25-31.54 76.27-32.08 76.27-32.15ZM127.11-15.48L125.91-1.95Q125.89-1.73 125.83-1.53 125.77-1.32 125.5-1.2L125.5-1.2Q125.4-1.15 124.53-0.84 123.67-0.54 122.53-0.13 121.4 0.27 120.29 0.67 119.17 1.07 118.59 1.29L118.59 1.29Q118.3 1.42 117.87 1.55 117.44 1.68 117.03 1.68L117.03 1.68Q116.68 1.68 116.43 1.51 116.17 1.34 116.17 0.88L116.17 0.88Q116.17-0.2 116.23-1.09 116.29-1.98 116.39-2.95 116.49-3.93 116.6-5.11 116.71-6.3 116.81-7.93L116.81-7.93Q116.93-10.08 117.08-12.07 117.22-14.06 117.37-16.21L117.37-16.21 117.71-20.39Q117.78-21.41 117.86-22.47 117.93-23.54 118-24.66L118-24.66 118.27-27.64Q118.27-27.69 118.13-27.69L118.13-27.69Q117.93-27.69 117.47-27.6 117-27.51 116.37-27.39 115.73-27.27 114.96-27.14 114.19-27 113.39-26.88L113.39-26.88Q113.19-26.88 113.01-26.97 112.83-27.05 112.83-27.17L112.83-27.17Q112.83-27.27 112.88-27.32L112.88-27.32 116.83-34.23Q118.17-34.52 119.72-34.83 121.27-35.13 123.06-35.38 124.84-35.62 126.84-35.78 128.84-35.94 131.09-35.94L131.09-35.94Q133.63-35.89 136.03-35.44 138.44-34.99 140.31-33.92 142.17-32.86 143.31-31.04 144.44-29.22 144.44-26.44L144.44-26.44Q144.44-24.9 143.92-23.61 143.39-22.31 142.58-21.28 141.76-20.24 140.78-19.45 139.8-18.65 138.91-18.09 138.02-17.53 137.34-17.2 136.66-16.87 136.41-16.77L136.41-16.77Q136.41-16.72 136.45-16.65 136.48-16.58 136.61-16.37 136.73-16.16 136.96-15.78 137.19-15.41 137.56-14.75L137.56-14.75Q137.95-14.16 138.49-13.18 139.02-12.21 139.77-10.88 140.51-9.55 141.49-7.91 142.47-6.27 143.74-4.39L143.74-4.39Q144.15-4.03 144.69-3.94 145.22-3.86 145.69-3.85 146.15-3.83 146.47-3.8 146.79-3.76 146.79-3.49L146.79-3.49Q146.79-3.3 146.38-3.04 145.98-2.78 145.44-2.51 144.91-2.25 144.36-2 143.81-1.76 143.52-1.61L143.52-1.61Q142.93-1.32 142.3-1.05 141.66-0.78 140.93-0.45 140.2-0.12 139.3 0.32 138.41 0.76 137.29 1.37L137.29 1.37Q137 1.54 136.74 1.6 136.48 1.66 136.26 1.66L136.26 1.66Q135.83 1.66 135.51 1.45 135.19 1.25 134.97 0.95 134.75 0.66 134.62 0.35 134.48 0.05 134.38-0.15L134.38-0.15 127.11-15.48ZM128.38-28.86L127.4-18.48Q128.65-18.48 129.99-19.12 131.33-19.75 132.43-20.75 133.53-21.75 134.24-23.02 134.95-24.29 134.95-25.59L134.95-25.59Q134.95-29.13 130.7-29.13L130.7-29.13Q129.89-29.13 129.36-29.02 128.82-28.91 128.38-28.86L128.38-28.86ZM194.23-20.26L194.23-20.26Q194.13-19.92 193.86-19.3 193.59-18.68 193.24-17.9 192.89-17.11 192.48-16.22 192.08-15.33 191.69-14.43L191.69-14.43Q191.54-14.09 191.42-13.93 191.3-13.77 191.03-13.7 190.76-13.62 190.29-13.61 189.81-13.6 188.96-13.57L188.96-13.57 185.56-13.5 184.88-6.03 197.4-6.03 197.4-5.08Q197.35-5.03 196.99-4.43 196.62-3.83 196.13-3 195.64-2.17 195.11-1.33 194.57-0.49 194.2 0.02L194.2 0.02Q193.96 0.46 193.64 0.72 193.33 0.98 192.95 1.1 192.57 1.22 192.12 1.25 191.67 1.27 191.13 1.27L191.13 1.27Q188.93 1.27 186.55 1.17 184.17 1.07 181.8 0.93 179.43 0.78 177.18 0.6 174.92 0.42 172.99 0.22L172.99 0.22Q172.82 0.2 172.68 0.02 172.55-0.15 172.55-0.37L172.55-0.37Q172.45-0.37 172.68-0.78 172.92-1.2 173.33-1.86 173.75-2.51 174.25-3.36 174.75-4.2 175.21-5.05L175.21-5.05 175.6-10.55Q175.7-11.94 175.76-12.62 175.82-13.31 175.82-13.35L175.82-13.35Q174.36-13.38 173.64-13.5 172.92-13.62 172.92-14.04L172.92-14.04Q172.92-14.23 173.27-14.77 173.62-15.31 174.14-16 174.65-16.7 175.22-17.46 175.8-18.21 176.24-18.85L176.24-18.85 176.85-27.15 176.77-27.15Q176.24-27.12 175.8-27.11 175.36-27.1 174.99-27.1L174.99-27.1Q173.82-27.1 173.32-27.23 172.82-27.37 172.82-27.73L172.82-27.73Q172.82-27.91 173.11-28.44 173.4-28.98 173.84-29.68 174.28-30.37 174.77-31.14 175.26-31.91 175.65-32.57L175.65-32.57 177.11-35.06 187.32-35.06 199.36-35.94Q199.38-35.94 199.49-35.93 199.6-35.91 199.72-35.85 199.84-35.79 199.95-35.64 200.06-35.5 200.06-35.23L200.06-35.23 199.7-33.96Q199.53-33.42 199.28-32.82 199.04-32.23 198.75-31.59L198.75-31.59 197.67-28.76Q197.5-28.34 197.28-28.13 197.06-27.91 196.35-27.88L196.35-27.88Q194.5-27.83 192.21-27.72 189.93-27.61 186.98-27.51L186.98-27.51Q186.88-27.17 186.88-26.97 186.88-26.76 186.83-26.17L186.83-26.17 186.71-25.05Q186.66-24.27 186.56-23.36 186.47-22.46 186.32-21.14L186.32-21.14Q187.56-21.19 188.75-21.24 189.93-21.29 190.91-21.33 191.88-21.36 192.61-21.39 193.33-21.41 193.62-21.41L193.62-21.41Q193.81-21.41 194.06-21.26 194.3-21.12 194.3-20.7L194.3-20.7Q194.3-20.51 194.23-20.26ZM245.92-20.26L245.92-20.26Q245.82-19.92 245.55-19.3 245.28-18.68 244.93-17.9 244.58-17.11 244.17-16.22 243.77-15.33 243.38-14.43L243.38-14.43Q243.23-14.09 243.11-13.93 242.99-13.77 242.72-13.7 242.45-13.62 241.98-13.61 241.5-13.6 240.64-13.57L240.64-13.57 237.25-13.5 236.57-6.03 249.09-6.03 249.09-5.08Q249.04-5.03 248.68-4.43 248.31-3.83 247.82-3 247.33-2.17 246.8-1.33 246.26-0.49 245.89 0.02L245.89 0.02Q245.65 0.46 245.33 0.72 245.01 0.98 244.64 1.1 244.26 1.22 243.81 1.25 243.35 1.27 242.82 1.27L242.82 1.27Q240.62 1.27 238.24 1.17 235.86 1.07 233.49 0.93 231.12 0.78 228.86 0.6 226.61 0.42 224.68 0.22L224.68 0.22Q224.51 0.2 224.37 0.02 224.24-0.15 224.24-0.37L224.24-0.37Q224.14-0.37 224.37-0.78 224.6-1.2 225.02-1.86 225.43-2.51 225.94-3.36 226.44-4.2 226.9-5.05L226.9-5.05 227.29-10.55Q227.39-11.94 227.45-12.62 227.51-13.31 227.51-13.35L227.51-13.35Q226.05-13.38 225.32-13.5 224.6-13.62 224.6-14.04L224.6-14.04Q224.6-14.23 224.96-14.77 225.31-15.31 225.83-16 226.34-16.7 226.91-17.46 227.49-18.21 227.93-18.85L227.93-18.85 228.54-27.15 228.46-27.15Q227.93-27.12 227.49-27.11 227.05-27.1 226.68-27.1L226.68-27.1Q225.51-27.1 225.01-27.23 224.51-27.37 224.51-27.73L224.51-27.73Q224.51-27.91 224.8-28.44 225.09-28.98 225.53-29.68 225.97-30.37 226.46-31.14 226.95-31.91 227.34-32.57L227.34-32.57 228.8-35.06 239.01-35.06 251.05-35.94Q251.07-35.94 251.18-35.93 251.29-35.91 251.41-35.85 251.53-35.79 251.64-35.64 251.75-35.5 251.75-35.23L251.75-35.23 251.39-33.96Q251.22-33.42 250.97-32.82 250.73-32.23 250.43-31.59L250.43-31.59 249.36-28.76Q249.19-28.34 248.97-28.13 248.75-27.91 248.04-27.88L248.04-27.88Q246.19-27.83 243.9-27.72 241.62-27.61 238.67-27.51L238.67-27.51Q238.57-27.17 238.57-26.97 238.57-26.76 238.52-26.17L238.52-26.17 238.4-25.05Q238.35-24.27 238.25-23.36 238.15-22.46 238.01-21.14L238.01-21.14Q239.25-21.19 240.44-21.24 241.62-21.29 242.6-21.33 243.57-21.36 244.29-21.39 245.01-21.41 245.31-21.41L245.31-21.41Q245.5-21.41 245.75-21.26 245.99-21.12 245.99-20.7L245.99-20.7Q245.99-20.51 245.92-20.26ZM323.44-34.94L323.44-34.94Q323.39-34.57 323.35-33.78 323.3-32.98 323.21-31.96 323.13-30.93 323.05-29.77 322.98-28.61 322.89-27.53 322.81-26.44 322.72-25.54 322.64-24.63 322.59-24.1L322.59-24.1 323.83-25.37 327.3-29.66Q327.93-30.47 328.57-31.24 329.2-32.01 329.7-32.63 330.21-33.25 330.52-33.67 330.84-34.08 330.89-34.13L330.89-34.13 341.73-35.03Q341.78-35.06 341.95-35.06L341.95-35.06 342.14-35.06Q342.71-35.06 342.71-34.77L342.71-34.77Q342.71-34.59 342.55-34.36 342.39-34.13 342.07-33.76L342.07-33.76Q341.68-33.3 340.94-32.43 340.19-31.57 339.31-30.53 338.43-29.49 337.49-28.38 336.55-27.27 335.75-26.33 334.94-25.39 334.37-24.71 333.79-24.02 333.65-23.83L333.65-23.83 332.11-22.36Q330.55-20.87 328.11-18.65L328.11-18.65Q328.86-17.87 329.73-16.96 330.6-16.04 331.39-15.2 332.18-14.36 332.83-13.67 333.48-12.99 333.79-12.65L333.79-12.65 341.34-3.91Q341.46-3.76 341.66-3.66 341.85-3.56 342.05-3.49 342.24-3.42 342.38-3.33 342.51-3.25 342.51-3.13L342.51-3.13Q342.51-2.98 342.19-2.66L342.19-2.66Q342-2.47 341.46-2.09 340.92-1.71 340.2-1.27 339.48-0.83 338.65-0.37 337.82 0.1 337.05 0.48 336.28 0.85 335.64 1.1 334.99 1.34 334.65 1.34L334.65 1.34Q334.14 1.34 333.57 0.89 333.01 0.44 332.23-0.48 331.45-1.39 330.38-2.81 329.3-4.22 327.79-6.13L327.79-6.13Q326.91-7.23 326.08-8.29 325.25-9.35 324.52-10.29 323.78-11.23 323.19-11.98 322.59-12.72 322.2-13.18L322.2-13.18Q322-12.99 321.78-12.81 321.56-12.62 321.37-12.43L321.37-12.43 320.51-1.95Q320.49-1.73 320.43-1.51 320.37-1.29 320.1-1.2L320.1-1.2 313.19 1.29Q312.92 1.39 312.48 1.54 312.04 1.68 311.63 1.68L311.63 1.68Q311.26 1.68 311.02 1.49 310.77 1.29 310.77 0.78L310.77 0.78Q310.89-0.66 311.08-2.95 311.26-5.25 311.47-8.19 311.68-11.13 311.91-14.61 312.14-18.09 312.41-21.92L312.41-21.92 313.09-32.2Q313.12-32.64 313.14-32.93 313.16-33.23 313.21-33.42 313.26-33.62 313.38-33.72 313.51-33.81 313.75-33.86L313.75-33.86 322.2-35.89Q322.51-35.99 322.86-35.99L322.86-35.99Q323.2-35.99 323.32-35.78 323.44-35.57 323.44-34.94ZM390.88-32.15L390.88-32.15Q390.88-33.03 391.04-33.36 391.2-33.69 391.68-33.81L391.68-33.81 400.08-35.84Q400.4-35.94 400.74-35.94L400.74-35.94Q401.08-35.94 401.21-35.73 401.33-35.52 401.33-34.89L401.33-34.89 401.04-31.05Q400.91-29.37 400.77-27.71 400.62-26.05 400.33-24.8L400.33-24.8 399.89-21.34Q399.69-19.8 399.52-18.01 399.35-16.21 399.16-13.99L399.16-13.99 398.01-1.95Q397.98-1.73 397.91-1.51 397.84-1.29 397.59-1.2L397.59-1.2Q397.42-1.12 396.8-0.88 396.18-0.63 395.32-0.32 394.47 0 393.49 0.35 392.52 0.71 391.64 1 390.76 1.29 390.07 1.49 389.39 1.68 389.15 1.68L389.15 1.68Q388.8 1.68 388.55 1.5 388.29 1.32 388.29 0.81L388.29 0.81Q388.29-2.15 388.63-5.24 388.98-8.33 389.24-11.38L389.24-11.38Q389.29-11.72 389.28-12.01 389.27-12.3 389.32-12.65L389.32-12.65 380.38-12.65 379.38-1.95Q379.36-1.73 379.29-1.53 379.23-1.32 378.97-1.2L378.97-1.2Q378.87-1.15 378-0.84 377.13-0.54 376-0.13 374.86 0.27 373.75 0.67 372.64 1.07 372.06 1.29L372.06 1.29Q371.76 1.42 371.34 1.55 370.91 1.68 370.49 1.68L370.49 1.68Q370.15 1.68 369.9 1.49 369.64 1.29 369.64 0.78L369.64 0.78Q369.64-0.39 369.72-1.89 369.81-3.39 369.93-5.04 370.05-6.69 370.23-8.42 370.4-10.16 370.57-11.84L370.57-11.84 370.62-12.55Q368.64-12.55 367.75-12.66 366.86-12.77 366.86-13.23L366.86-13.23Q366.86-13.55 367.22-14.06L367.22-14.06Q367.71-14.75 368.36-15.71 369-16.67 369.6-17.61 370.2-18.55 370.68-19.3 371.15-20.04 371.3-20.26L371.3-20.26 371.86-26.15Q371.86-26.2 371.91-26.88 371.96-27.56 372.03-28.5 372.1-29.44 372.19-30.44 372.28-31.45 372.35-32.15L372.35-32.15Q372.4-33.01 372.48-33.35 372.57-33.69 373.06-33.81L373.06-33.81 381.36-35.84Q381.68-35.94 382.02-35.94L382.02-35.94Q382.36-35.94 382.48-35.73 382.6-35.52 382.6-34.89L382.6-34.89Q382.43-33.13 382.33-31.69 382.24-30.25 382.13-29 382.02-27.76 381.89-26.64 381.77-25.51 381.55-24.34L381.55-24.34 381.06-20.56 389.93-20.65Q390.15-23.9 390.42-26.17 390.68-28.44 390.76-29.76L390.76-29.76Q390.83-31.01 390.85-31.54 390.88-32.08 390.88-32.15ZM428.09 0.78L428.09 0.78 429.31-15.92Q429.92-24.32 430.22-28.25 430.51-32.18 430.51-32.15L430.51-32.15Q430.53-32.59 430.56-32.89 430.58-33.18 430.65-33.37 430.73-33.57 430.85-33.67 430.97-33.76 431.22-33.81L431.22-33.81 439.66-35.84Q439.98-35.94 440.32-35.94L440.32-35.94Q440.66-35.94 440.79-35.73 440.91-35.52 440.91-34.89L440.91-34.89Q440.74-33.37 440.64-32.06 440.54-30.74 440.48-29.54 440.42-28.34 440.37-27.23 440.32-26.12 440.25-25.02L440.25-25.02Q440.1-23.83 439.99-22.63 439.88-21.44 439.79-20.15 439.69-18.87 439.58-17.44 439.47-16.02 439.32-14.33L439.32-14.33 438.25-1.46Q438.22-1.25 438.16-1.04 438.1-0.83 437.83-0.71L437.83-0.71Q437.81-0.71 437.54-0.61 437.27-0.51 436.83-0.35 436.39-0.2 435.81-0.02 435.22 0.15 434.56 0.29L434.56 0.29Q433.46 0.54 432.64 0.78 431.83 1.03 431.19 1.23 430.56 1.44 430.02 1.56 429.48 1.68 428.95 1.68L428.95 1.68Q428.58 1.68 428.34 1.49 428.09 1.29 428.09 0.78ZM491.91-33.89L499.53-35.94Q499.65-35.96 499.76-35.97 499.87-35.99 499.97-35.99L499.97-35.99Q500.41-35.99 500.68-35.71 500.95-35.42 501.05-34.72L501.05-34.72Q501.09-34.28 501.2-33.48 501.31-32.69 501.45-31.73 501.58-30.76 501.74-29.74 501.9-28.71 502.02-27.84 502.14-26.98 502.24-26.35 502.34-25.73 502.36-25.56L502.36-25.56Q502.9-21.24 503.32-18.63 503.73-16.02 503.9-14.77L503.9-14.77 505.54-1.56 505.29-0.81Q505.24-0.63 504.66-0.39 504.07-0.15 503.24 0.13 502.41 0.42 501.44 0.68 500.46 0.95 499.63 1.17 498.8 1.39 498.23 1.53 497.65 1.66 497.63 1.66L497.63 1.66Q497.04 1.66 496.7 0.81 496.36-0.05 496.14-1.37 495.92-2.69 495.78-4.25 495.65-5.81 495.48-7.25L495.48-7.25Q495.33-8.45 495.21-9.67 495.09-10.89 494.94-12.16L494.94-12.16 493.99-19.29 484.93-2.71Q484.52-2.12 484.1-1.87 483.69-1.61 483.32-1.61L483.32-1.61Q482.78-1.61 482.48-1.93 482.17-2.25 482.05-2.71L482.05-2.71Q481.59-4.25 481.26-5.31 480.93-6.37 480.65-7.25 480.37-8.13 480.12-8.96 479.88-9.79 479.57-10.88 479.27-11.96 478.89-13.44 478.51-14.92 477.97-17.07L477.97-17.07 477.22-13.55 473.7 1.37Q473.63 1.66 473.09 1.66L473.09 1.66Q472.58 1.66 471.69 1.46 470.8 1.27 469.83 0.99 468.87 0.71 467.95 0.4 467.04 0.1 466.5-0.15L466.5-0.15Q466.38-0.2 466.19-0.38 466.01-0.56 466.01-0.95L466.01-0.95Q466.01-1.05 466.08-1.37 466.16-1.68 466.27-2.11 466.38-2.54 466.51-2.98 466.65-3.42 466.77-3.76L466.77-3.76Q467.09-4.59 467.34-5.71 467.6-6.84 467.82-7.98 468.04-9.13 468.22-10.18 468.4-11.23 468.57-11.94L468.57-11.94 471.58-25.95 472.48-29.91Q472.65-30.66 472.81-31.38 472.97-32.1 473.09-32.69 473.21-33.28 473.29-33.64 473.36-34.01 473.36-34.06L473.36-34.06 479.46-35.94Q479.81-35.94 480.06-35.88 480.32-35.82 480.39-35.47L480.39-35.47 485.25-19.85 491.91-33.89ZM537.35 1.27L532.91 1.27Q532.64 1.22 532.52 1 532.4 0.78 532.4 0.51L532.4 0.51Q532.4 0.29 532.5 0.12L532.5 0.12 535.5-5.62Q535.52-5.71 535.58-6.37 535.65-7.03 535.72-8.02 535.79-9.01 535.88-10.23 535.96-11.45 536.06-12.65 536.16-13.84 536.24-14.93 536.33-16.02 536.4-16.75L536.4-16.75Q536.43-17.04 536.48-17.64 536.52-18.24 536.57-19.02 536.62-19.8 536.69-20.7 536.77-21.61 536.84-22.51L536.84-22.51 537.18-27.61Q536.52-27.47 535.82-27.31 535.11-27.15 534.44-27.03 533.77-26.9 533.17-26.82 532.57-26.73 532.13-26.73L532.13-26.73Q531.86-26.73 531.73-26.98 531.59-27.22 531.59-27.49L531.59-27.49Q531.59-27.81 531.74-27.95L531.74-27.95 537.94-33.74Q538.7-34.42 539.44-34.85 540.19-35.28 541.24-35.52 542.29-35.77 543.81-35.85 545.34-35.94 547.68-35.94L547.68-35.94Q551.69-35.94 554.79-35.11 557.89-34.28 560.03-32.74L560.03-32.74Q561.62-31.64 562.87-30.44 564.11-29.25 564.97-27.8 565.82-26.34 566.26-24.6 566.7-22.85 566.7-20.65L566.7-20.65Q566.7-16.48 565.45-13.23 564.21-9.99 562.06-7.56 559.91-5.13 557.04-3.44 554.18-1.76 550.92-0.71 547.66 0.34 544.18 0.81 540.7 1.27 537.35 1.27L537.35 1.27ZM547.1-28.13L547.1-28.13 546.8-25.17Q546.66-23.63 546.5-21.89 546.34-20.14 546.19-18.35 546.05-16.55 545.9-14.81 545.75-13.06 545.63-11.55 545.51-10.03 545.41-8.84 545.31-7.64 545.24-6.93L545.24-6.93 545.17-6.2Q548.12-6.2 550.16-7.15 552.2-8.11 553.47-9.78 554.74-11.45 555.31-13.7 555.88-15.94 555.88-18.53L555.88-18.53Q555.88-20.39 555.37-22.11 554.86-23.83 553.88-25.39L553.88-25.39Q552.91-26.95 551.49-27.73 550.07-28.52 548.29-28.52L548.29-28.52Q548-28.52 547.66-28.38 547.32-28.25 547.1-28.13ZM591.51-1.78L591.51-1.78Q591.83-2.42 592.17-3.21 592.51-4 592.8-4.93L592.8-4.93 593.46-6.54Q593.02-7.2 592.57-7.97 592.12-8.74 591.75-9.55 591.39-10.35 591.16-11.16 590.92-11.96 590.92-12.72L590.92-12.72Q590.92-12.77 591.3-12.81 591.68-12.84 592.25-12.87 592.83-12.89 593.5-12.9 594.17-12.92 594.74-12.93 595.32-12.94 595.7-12.95 596.07-12.96 596.07-12.96L596.07-12.96Q596.64-14.43 597.17-15.75 597.71-17.07 598.25-18.41 598.78-19.75 599.32-21.15 599.86-22.56 600.4-24.17L600.4-24.17Q601.42-27.2 602.4-29.49 603.37-31.79 604.23-33.76L604.23-33.76Q604.33-34.01 604.56-34.22 604.79-34.42 605.06-34.57 605.33-34.72 605.58-34.81 605.84-34.91 605.99-34.96L605.99-34.96Q606.08-34.99 606.73-35.18 607.38-35.38 608.21-35.6 609.04-35.82 609.86-35.99 610.67-36.16 611.16-36.16L611.16-36.16 611.6-36.16Q611.99-36.16 612.35-35.97 612.7-35.79 612.82-35.25L612.82-35.25Q613.99-32.25 615.33-28.7 616.66-25.15 617.93-20.87L617.93-20.87Q618.61-18.58 619.27-16.53 619.93-14.48 620.59-12.52 621.25-10.57 621.92-8.62 622.59-6.67 623.3-4.59L623.3-4.59Q623.52-3.71 623.75-3.2 623.98-2.69 624.18-2.39 624.37-2.1 624.49-1.97 624.61-1.83 624.61-1.68L624.61-1.68Q624.61-1.54 624.15-1.39L624.15-1.39 618.9 0.32Q618.32 0.54 617.71 0.76 617.1 0.98 616.56 1.15 616.02 1.32 615.62 1.43 615.22 1.54 615.04 1.54L615.04 1.54 614.9 1.54Q614.56 1.54 614.41 1.33 614.26 1.12 614.21 0.93L614.21 0.93Q613.97 0.12 613.73-0.52 613.48-1.17 613.25-1.82 613.02-2.47 612.79-3.2 612.55-3.93 612.33-4.93L612.33-4.93Q612.29-5.05 612.07-5.14 611.85-5.22 611.54-5.27 611.24-5.32 610.89-5.33 610.55-5.35 610.26-5.35L610.26-5.35Q609.33-5.35 608.76-5.33 608.18-5.32 607.74-5.31 607.31-5.3 606.9-5.29 606.5-5.27 605.91-5.27L605.91-5.27Q605.21-5.27 604.46-5.29 603.72-5.3 603.11-5.32L603.11-5.32 601.71-5.37Q601.08-3.61 600.44-2.08 599.81-0.54 599.08 1.1L599.08 1.1Q599.03 1.29 598.85 1.42 598.66 1.54 598.47 1.54L598.47 1.54Q598.32 1.54 598.3 1.51L598.3 1.51Q595.93 0.66 594.32-0.17 592.71-1 591.51-1.78ZM607.96-23.73L607.96-23.73Q607.38-21.56 606.8-19.79 606.23-18.02 605.76-16.65 605.28-15.28 604.94-14.34 604.6-13.4 604.45-12.89L604.45-12.89 604.45-12.67Q604.45-12.52 604.42-12.48L604.42-12.48 610.28-12.48Q610.02-13.67 609.71-14.89 609.4-16.11 609.11-17.46 608.82-18.8 608.53-20.34 608.23-21.88 607.96-23.73ZM651.18-0.37L650.77-9.08Q650.77-9.11 650.76-9.13 650.74-9.16 650.74-9.18L650.74-9.18Q650.74-9.59 651.18-9.59L651.18-9.59Q651.4-9.59 651.67-9.38L651.67-9.38Q652.99-8.13 654.6-7.4 656.21-6.67 658.12-6.67L658.12-6.67Q658.63-6.67 659.29-6.77 659.95-6.88 660.53-7.14 661.12-7.4 661.52-7.81 661.92-8.23 661.92-8.86L661.92-8.86Q661.92-9.57 661.58-10.13 661.24-10.69 660.68-11.08L660.68-11.08Q660.46-11.23 660.02-11.57 659.58-11.91 659.02-12.35 658.46-12.79 657.85-13.29 657.24-13.79 656.69-14.25 656.14-14.7 655.7-15.06 655.26-15.43 655.04-15.63L655.04-15.63Q653.6-16.7 652.76-17.8 651.91-18.9 651.48-20.09 651.04-21.29 650.91-22.57 650.79-23.85 650.79-25.29L650.79-25.29Q650.79-27.44 651.82-29.37 652.84-31.3 654.71-32.73 656.58-34.16 659.19-35 661.8-35.84 665-35.84L665-35.84Q665.39-35.84 666.17-35.75 666.95-35.67 667.89-35.47 668.83-35.28 669.81-34.94 670.79-34.59 671.59-34.06L671.59-34.06Q671.86-33.86 672.02-33.67 672.18-33.47 672.23-33.06L672.23-33.06Q672.35-31.08 672.42-29.16 672.5-27.25 672.62-25.1L672.62-25.1Q672.62-24.68 672.45-24.55 672.28-24.41 672.01-24.41L672.01-24.41Q671.74-24.41 671.59-24.56L671.59-24.56Q670.88-25.27 670.13-25.95 669.37-26.64 668.54-27.16 667.71-27.69 666.77-28 665.83-28.32 664.73-28.32L664.73-28.32Q664.07-28.32 663.41-28.21 662.75-28.1 662.22-27.81 661.68-27.51 661.35-27 661.02-26.49 661.02-25.71L661.02-25.71Q661.02-24.88 661.23-24.27 661.44-23.66 662.27-23.12L662.27-23.12 668.13-19.14Q669.74-17.99 670.74-16.86 671.74-15.72 672.3-14.6 672.86-13.48 673.07-12.39 673.28-11.3 673.28-10.25L673.28-10.25Q673.28-8.54 672.72-7.03 672.15-5.52 671.18-4.24 670.2-2.95 668.89-1.94 667.59-0.93 666.1-0.21 664.61 0.51 663.01 0.89 661.41 1.27 659.87 1.27L659.87 1.27Q658.68 1.27 657.52 1.23 656.36 1.2 655.26 1.04 654.16 0.88 653.14 0.55 652.11 0.22 651.18-0.37L651.18-0.37ZM723.18-32.15L723.18-32.15Q723.18-33.03 723.34-33.36 723.5-33.69 723.99-33.81L723.99-33.81 732.39-35.84Q732.71-35.94 733.05-35.94L733.05-35.94Q733.39-35.94 733.51-35.73 733.63-35.52 733.63-34.89L733.63-34.89 733.34-31.05Q733.22-29.37 733.07-27.71 732.93-26.05 732.63-24.8L732.63-24.8 732.19-21.34Q732-19.8 731.83-18.01 731.66-16.21 731.46-13.99L731.46-13.99 730.31-1.95Q730.29-1.73 730.22-1.51 730.14-1.29 729.9-1.2L729.9-1.2Q729.73-1.12 729.1-0.88 728.48-0.63 727.63-0.32 726.77 0 725.8 0.35 724.82 0.71 723.94 1 723.06 1.29 722.38 1.49 721.7 1.68 721.45 1.68L721.45 1.68Q721.11 1.68 720.85 1.5 720.6 1.32 720.6 0.81L720.6 0.81Q720.6-2.15 720.94-5.24 721.28-8.33 721.55-11.38L721.55-11.38Q721.6-11.72 721.59-12.01 721.57-12.3 721.62-12.65L721.62-12.65 712.69-12.65 711.69-1.95Q711.66-1.73 711.6-1.53 711.54-1.32 711.27-1.2L711.27-1.2Q711.17-1.15 710.31-0.84 709.44-0.54 708.3-0.13 707.17 0.27 706.06 0.67 704.95 1.07 704.36 1.29L704.36 1.29Q704.07 1.42 703.64 1.55 703.21 1.68 702.8 1.68L702.8 1.68Q702.46 1.68 702.2 1.49 701.94 1.29 701.94 0.78L701.94 0.78Q701.94-0.39 702.03-1.89 702.12-3.39 702.24-5.04 702.36-6.69 702.53-8.42 702.7-10.16 702.87-11.84L702.87-11.84 702.92-12.55Q700.94-12.55 700.05-12.66 699.16-12.77 699.16-13.23L699.16-13.23Q699.16-13.55 699.53-14.06L699.53-14.06Q700.02-14.75 700.66-15.71 701.31-16.67 701.91-17.61 702.51-18.55 702.98-19.3 703.46-20.04 703.6-20.26L703.6-20.26 704.17-26.15Q704.17-26.2 704.21-26.88 704.26-27.56 704.34-28.5 704.41-29.44 704.5-30.44 704.58-31.45 704.65-32.15L704.65-32.15Q704.7-33.01 704.79-33.35 704.87-33.69 705.36-33.81L705.36-33.81 713.66-35.84Q713.98-35.94 714.32-35.94L714.32-35.94Q714.66-35.94 714.79-35.73 714.91-35.52 714.91-34.89L714.91-34.89Q714.74-33.13 714.64-31.69 714.54-30.25 714.43-29 714.32-27.76 714.2-26.64 714.08-25.51 713.86-24.34L713.86-24.34 713.37-20.56 722.23-20.65Q722.45-23.9 722.72-26.17 722.99-28.44 723.06-29.76L723.06-29.76Q723.14-31.01 723.16-31.54 723.18-32.08 723.18-32.15ZM797.36-0.32L797.36-0.32Q796.88-0.44 796.7-0.7 796.53-0.95 796.53-1.27L796.53-1.27Q796.53-1.34 796.55-1.37 796.56-1.39 796.56-1.46L796.56-1.46Q796.75-4.1 796.99-6.99 797.22-9.89 797.49-12.88 797.75-15.87 798.02-18.85 798.29-21.83 798.56-24.63L798.56-24.63 798.54-24.63Q798.44-24.63 797.99-24.48 797.54-24.32 796.96-24.13 796.39-23.95 795.8-23.8 795.22-23.66 794.85-23.66L794.85-23.66Q794.53-23.66 794.4-23.9 794.26-24.15 794.26-24.44L794.26-24.44Q794.26-24.66 794.34-24.85L794.34-24.85Q795-26.76 795.7-28.42 796.41-30.08 797.12-31.84L797.12-31.84Q798.98-32.84 800.98-33.58 802.98-34.33 805.02-34.83 807.06-35.33 809.08-35.58 811.11-35.84 813.01-35.84L813.01-35.84Q815.67-35.84 818.03-35.28 820.39-34.72 822.13-33.58 823.88-32.45 824.89-30.73 825.9-29 825.9-26.68L825.9-26.68Q825.9-25.68 825.46-24.76 825.03-23.83 824.33-22.99 823.63-22.14 822.78-21.42 821.92-20.7 821.09-20.12L821.09-20.12Q822.27-19.26 823.21-18.57 824.15-17.87 824.81-17.11 825.46-16.36 825.81-15.42 826.15-14.48 826.15-13.13L826.15-13.13Q826.15-11.08 825.43-9.22 824.71-7.35 823.45-5.75 822.19-4.15 820.47-2.86 818.75-1.56 816.74-0.65 814.72 0.27 812.49 0.77 810.25 1.27 807.98 1.27L807.98 1.27Q807.15 1.27 805.76 1.1 804.37 0.93 802.85 0.7 801.32 0.46 799.84 0.18 798.37-0.1 797.36-0.32ZM808.62-27.1L808.62-27.1Q808.16-24.22 807.84-21.25 807.52-18.29 807.29-15.49 807.06-12.7 806.89-10.18 806.71-7.67 806.54-5.69L806.54-5.69Q807.52-5.69 808.66-5.8 809.79-5.91 810.91-6.18 812.04-6.45 813.1-6.87 814.16-7.3 814.97-7.93 815.77-8.57 816.26-9.44 816.75-10.3 816.75-11.43L816.75-11.43Q816.75-12.11 816.33-12.63 815.92-13.16 815.27-13.54 814.62-13.92 813.84-14.17 813.06-14.43 812.32-14.59 811.57-14.75 810.95-14.83 810.33-14.92 810.01-14.97L810.01-14.97Q809.67-15.01 809.57-15.21 809.47-15.41 809.47-15.7L809.47-15.7Q809.47-16.02 809.86-16.65 810.25-17.29 810.94-18.38L810.94-18.38 811.96-20.02Q812.62-20.26 813.39-20.63 814.16-21 814.82-21.47 815.48-21.95 815.92-22.55 816.36-23.14 816.36-23.85L816.36-23.85Q816.36-25.85 815.49-26.92 814.62-27.98 812.99-27.98L812.99-27.98Q811.13-27.98 808.62-27.1ZM851.2-1.78L851.2-1.78Q851.52-2.42 851.86-3.21 852.2-4 852.5-4.93L852.5-4.93 853.16-6.54Q852.72-7.2 852.26-7.97 851.81-8.74 851.45-9.55 851.08-10.35 850.85-11.16 850.62-11.96 850.62-12.72L850.62-12.72Q850.62-12.77 850.99-12.81 851.37-12.84 851.95-12.87 852.52-12.89 853.19-12.9 853.86-12.92 854.44-12.93 855.01-12.94 855.39-12.95 855.77-12.96 855.77-12.96L855.77-12.96Q856.33-14.43 856.87-15.75 857.4-17.07 857.94-18.41 858.48-19.75 859.01-21.15 859.55-22.56 860.09-24.17L860.09-24.17Q861.11-27.2 862.09-29.49 863.07-31.79 863.92-33.76L863.92-33.76Q864.02-34.01 864.25-34.22 864.48-34.42 864.75-34.57 865.02-34.72 865.28-34.81 865.53-34.91 865.68-34.96L865.68-34.96Q865.78-34.99 866.42-35.18 867.07-35.38 867.9-35.6 868.73-35.82 869.55-35.99 870.37-36.16 870.86-36.16L870.86-36.16 871.29-36.16Q871.69-36.16 872.04-35.97 872.39-35.79 872.52-35.25L872.52-35.25Q873.69-32.25 875.02-28.7 876.35-25.15 877.62-20.87L877.62-20.87Q878.3-18.58 878.96-16.53 879.62-14.48 880.28-12.52 880.94-10.57 881.61-8.62 882.28-6.67 882.99-4.59L882.99-4.59Q883.21-3.71 883.44-3.2 883.67-2.69 883.87-2.39 884.06-2.1 884.19-1.97 884.31-1.83 884.31-1.68L884.31-1.68Q884.31-1.54 883.84-1.39L883.84-1.39 878.59 0.32Q878.01 0.54 877.4 0.76 876.79 0.98 876.25 1.15 875.71 1.32 875.31 1.43 874.91 1.54 874.74 1.54L874.74 1.54 874.59 1.54Q874.25 1.54 874.1 1.33 873.96 1.12 873.91 0.93L873.91 0.93Q873.66 0.12 873.42-0.52 873.17-1.17 872.94-1.82 872.71-2.47 872.48-3.2 872.25-3.93 872.03-4.93L872.03-4.93Q871.98-5.05 871.76-5.14 871.54-5.22 871.23-5.27 870.93-5.32 870.59-5.33 870.25-5.35 869.95-5.35L869.95-5.35Q869.02-5.35 868.45-5.33 867.88-5.32 867.44-5.31 867-5.3 866.6-5.29 866.19-5.27 865.61-5.27L865.61-5.27Q864.9-5.27 864.15-5.29 863.41-5.3 862.8-5.32L862.8-5.32 861.41-5.37Q860.77-3.61 860.14-2.08 859.5-0.54 858.77 1.1L858.77 1.1Q858.72 1.29 858.54 1.42 858.36 1.54 858.16 1.54L858.16 1.54Q858.01 1.54 857.99 1.51L857.99 1.51Q855.62 0.66 854.01-0.17 852.4-1 851.2-1.78ZM867.66-23.73L867.66-23.73Q867.07-21.56 866.5-19.79 865.92-18.02 865.45-16.65 864.97-15.28 864.63-14.34 864.29-13.4 864.14-12.89L864.14-12.89 864.14-12.67Q864.14-12.52 864.12-12.48L864.12-12.48 869.98-12.48Q869.71-13.67 869.4-14.89 869.1-16.11 868.8-17.46 868.51-18.8 868.22-20.34 867.93-21.88 867.66-23.73ZM940.32-25.37L940.32-25.37Q940.29-23.27 939.92-21.61 939.54-19.95 938.84-18.62 938.15-17.29 937.16-16.22 936.17-15.16 934.9-14.23L934.9-14.23Q932.46-12.48 929.55-11.58 926.65-10.69 923.72-10.69L923.72-10.69Q923.23-10.69 922.75-10.72 922.28-10.74 921.79-10.79L921.79-10.79 920.98-1.88 920.57-1.12Q920.52-1.03 919.74-0.73 918.96-0.44 917.78-0.05L917.78-0.05 916.25 0.46Q915.51 0.73 914.95 0.95 914.39 1.17 913.9 1.34 913.41 1.51 912.95 1.6 912.49 1.68 911.97 1.68L911.97 1.68Q911.63 1.68 911.44 1.51 911.24 1.34 911.24 0.85L911.24 0.85 911.51-3.32Q911.58-4.57 911.69-5.82 911.8-7.08 911.9-8.69L911.9-8.69 912.36-14.53Q912.51-16.31 912.63-18.09 912.75-19.87 912.88-21.48 913-23.1 913.1-24.5 913.19-25.9 913.27-26.95L913.27-26.95Q911.95-26.66 911.16-26.53 910.36-26.39 909.95-26.39L909.95-26.39Q909.43-26.39 909.43-26.83L909.43-26.83Q909.78-28.03 910.07-29.17L910.07-29.17Q910.34-30.15 910.62-31.19 910.9-32.23 911.09-32.93L911.09-32.93Q911.22-33.37 911.38-33.61 911.53-33.84 911.79-33.97 912.05-34.11 912.45-34.22 912.85-34.33 913.44-34.52L913.44-34.52Q913.9-34.67 914.74-34.85 915.59-35.03 916.67-35.22 917.76-35.4 919.03-35.57 920.3-35.74 921.6-35.88 922.91-36.01 924.18-36.1 925.45-36.18 926.57-36.18L926.57-36.18Q929.36-36.18 931.85-35.67 934.34-35.16 936.22-33.92 938.1-32.69 939.21-30.6 940.32-28.52 940.32-25.37ZM922.47-18.04L922.47-18.04Q922.47-17.77 922.57-17.57 922.67-17.36 923.11-17.36L923.11-17.36Q923.79-17.36 924.73-17.66 925.67-17.97 926.61-18.58 927.55-19.19 928.36-20.09 929.16-21 929.58-22.22L929.58-22.22Q929.75-22.71 929.86-23.46 929.97-24.22 929.97-25.24L929.97-25.24Q929.97-26.95 928.78-27.76 927.6-28.56 925.69-28.56L925.69-28.56Q925.38-28.56 924.97-28.53 924.57-28.49 924.22-28.39 923.86-28.3 923.62-28.16 923.38-28.03 923.35-27.81L923.35-27.81 923.3-27.27Q923.28-26.95 923.2-26.23 923.13-25.51 923.05-24.58 922.96-23.66 922.87-22.63 922.79-21.61 922.7-20.68 922.62-19.75 922.56-19.04 922.5-18.33 922.47-18.04ZM996.04-34.91L996.04-34.91Q995.99-34.25 995.87-32.97 995.74-31.69 995.58-30.07 995.43-28.44 995.25-26.66 995.08-24.88 994.93-23.25 994.77-21.63 994.64-20.31 994.52-18.99 994.47-18.33L994.47-18.33Q993.96-13.13 992.73-9.41 991.5-5.69 989.49-3.32 987.49-0.95 984.7 0.16 981.9 1.27 978.24 1.27L978.24 1.27Q975.72 1.27 973.5 0.35 971.28-0.56 969.62-2.22 967.96-3.88 967-6.21 966.03-8.54 966.03-11.4L966.03-11.4Q966.03-11.77 966.09-12.73 966.15-13.7 966.26-15.09 966.37-16.48 966.51-18.25 966.64-20.02 966.79-22.02L966.79-22.02 967.08-26.07Q967.23-28.3 967.3-29.77 967.37-31.25 967.46-32.15 967.54-33.06 967.72-33.47 967.89-33.89 968.25-34.01L968.25-34.01 976.58-35.86Q976.9-35.96 977.24-35.96L977.24-35.96Q977.63-35.96 977.76-35.74 977.9-35.52 977.9-34.91L977.9-34.91 976.04-15.67Q975.99-14.82 975.87-13.82 975.75-12.82 975.75-11.77L975.75-11.77Q975.75-11.13 975.91-10.38 976.07-9.62 976.48-8.95 976.9-8.28 977.62-7.82 978.34-7.37 979.48-7.37L979.48-7.37Q980.88-7.37 981.73-7.97 982.58-8.57 983.1-9.56 983.61-10.55 983.84-11.8 984.07-13.06 984.22-14.38L984.22-14.38Q984.34-15.92 984.51-17.99 984.68-20.07 984.85-22.44L984.85-22.44 985.56-32.18Q985.61-32.62 985.62-32.91 985.64-33.2 985.68-33.4 985.73-33.59 985.89-33.69 986.05-33.79 986.39-33.84L986.39-33.84 994.72-35.86Q995.04-35.96 995.38-35.96L995.38-35.96Q995.72-35.96 995.88-35.75 996.04-35.55 996.04-34.91Z"
                                                                opacity="1"
                                                                transform="matrix(1,0,0,1,0,0)"
                                                                fill="#604330" class="slogan-text-1"
                                                                data-fill-palette-color="secondary"
                                                                id="text-1"></path>
                                                        </svg>
                                                    </g>
                                                </svg>
                                            </g>
                                        </svg>
                                    </g>
                                </svg>
                            </g>
                            <g>
                                <svg viewBox="0 0 197.3093249312916 184.22145536231545"
                                    height="184.22145536231545" width="197.3093249312916">
                                    <g>
                                        <svg xmlns="http://www.w3.org/2000/svg"
                                            xmlns:xlink="http://www.w3.org/1999/xlink"
                                            xml:space="preserve" version="1.1"
                                            style="shape-rendering:geometricPrecision;text-rendering:geometricPrecision;image-rendering:optimizeQuality;"
                                            viewBox="0 0 661 617.1547241210938" x="0" y="0"
                                            fill-rule="evenodd" clip-rule="evenodd"
                                            width="197.3093249312916" height="184.22145536231545"
                                            class="icon-icon-0" data-fill-palette-color="accent"
                                            id="icon-0"><g fill="#ff851b" data-fill-palette-color="accent"><path class="" d="M217 357c-2-2-4-2-5 2 0 3 1 11 2 15 1 4 2 9 2 13 0 5 1 8 1 13 0 9 0 20 0 29 0 5-1 10-1 15 0 15 0 29 0 44 0 6 0 13 0 19 0 2-1 15-2 16 0 1 0 0-1-1 0-2 1-10 1-14 0-4 0-8 0-12 0-17 0-33 0-49 0-5 0-9 0-14 1-4 0-9 0-13 0-10 0-20-2-30-1-3-1-6-2-9-2-6-3-10-6-16-1-3-2-6-4-9-2-5-5-11-10-13-10-3-20-6-29-8-4 0-5 1-5 5-2 6-2 16-2 22 2 14 1 29 0 43 0 3 0 6 0 9-1 4-1 7-2 11-1 5-1 12-1 18 0 5 1 11 1 16 1 5 1 8 1 13 1 4 1 8 1 12 0 3 0 6 1 9 0 5 0 10 1 15 0 2 1 14 0 15-1 2-1-7-2-7 0-5 0-10-1-15 0-5 0-9-1-14 0-4 0-6-1-10 0-6 0-11-1-17 0-3-1-5-1-8-2-9-1-20 0-29 1-4 1-9 1-12 0-4 0-9 0-13-1-9-1-20-2-29-1-4-1-6-2-10-1-5-1-10-2-15 0-5-1-11-6-13-4 0-8-1-12-1-8-1-15-1-23-1-4 1-4 5-5 8-1 8-1 18-2 26 0 5 1 10 1 15 0 9-1 18-1 28 0 3 0 6 0 9 0 7 0 13 0 19 0 3 0 6 0 9 1 4 1 8 1 12 0 6 0 12 0 18 0 7 2 13 2 20 0 5 0 9 1 14 0 6 1 12 1 18 1 6 1 11 1 17 0 2 1 10 1 11-1 2-1 0-2-1 0-4-1-8-1-13 0-9 0-18-1-27-1-5-2-10-2-15 0-5 0-9-1-14 0-3-1-7-1-10 0-10 0-18-1-28 0-3-1-7-1-10 0-4 0-8 0-12 0-6-1-11-1-17 0-10 0-20-1-30 0-5-1-10-1-15 0-7 0-19-3-25-1-2-2-3-4-4-2-1-5-1-7-1-10-1-9-4-1-7 6-3 12-4 18-6 8-3 20-5 29-5 16-1 33 1 49 3 20 2 37 6 56 13 4 2 5-1 6-4 1-8 0-15-2-23-1-3-4-13-3-15 2-2 4 1 5 2 1 4 3 8 4 12 4 8 6 14 7 22 1 5 5 16 9 18 1 1 5 3 7 4 1 1 3 2 4 3 16 7 22 3 28-13 8-25 10-61 11-86 0-5 1-9 1-13 0-9-8-17-13-23-5-6-9-11-13-18-2-5-5-9-8-14-1-1-5-8-2-9 3-1 8 7 10 9 4 6 7 12 13 18 2 2 10 12 13 10 2 0 2-4 2-5 0-1 0-3 0-4 0-5 12-34 19-36 8-1-1 54-1 63 1 22 3 107 25 117 9 5 23-4 31-7 3-2 9-4 12-6 4-2 5-8 7-12 3-6 2-8 4-14 1-5 5-5 6 0 2 5 2 9 2 14 1 3 2 7 6 6 8-1 14-2 22-3 27-2 51-2 78-1 19 1 46-3 63-1 13 1 8 9-2 12-10 3-21 5-32 6-2 1-3 2-4 5-2 6-2 15-2 22 0 7-1 13-1 20 0 3 0 8 0 12 1 13 0 26 0 39 0 14 0 28 0 43 0 3 0 7 0 11 1 2 1 17 0 18 0 2-1 0-1-1 0-9 0-17-1-25 0-5 0-11 0-16 0-20 0-40-1-60 0-6 0-12-1-18 0-4 0-9-1-13 0-10-1-17-3-26-1-3-3-8-7-8-5 0-9 1-14 1-2 0-4 2-5 4-2 4-4 10-5 14-1 7-2 14-3 20-1 7-2 14-3 22 0 6 0 11 0 17 0 3-1 7-1 10 0 2-1 5-1 8 0 4-1 7-1 11 0 5-1 11-1 17 0 5 2 10 2 14 0 3-1 3-2 0 0-5-1-10-1-16 0-8 0-16 1-25 0-2 0-6 0-9 1-2 1-6 1-8 0-5 0-11 0-16 0-7 0-12 1-19 0-6 1-12 0-17 0-4 1-8 1-12-1-3-1-12-5-12-2-1-8 0-10 1-8 1-15 2-23 3-3 1-3 2-4 4-4 9-5 35-5 45-1 6 0 11 1 17 0 5-1 11-1 16-1 6-2 11-3 17-1 3-1 6-2 9 0 4-1 8-1 12 0 10 0 20 0 29 0 4 0 23-1 24 0 2-1 0-1-1 0-6 0-14 0-20 0-11 0-22 0-32 1-5 1-9 2-13 0-5 1-9 2-13 0-3 1-6 1-9 0-6 1-11 0-17 0-6-1-12-2-17 0-4 0-9 0-13-1-5-2-31-7-32-2 0-13 5-16 7-15 8-24 19-33 34-3 4-5 7-8 11-6 5-10 11-15 17-3 4-6 7-9 11-4 5-8 9-13 14-3 4-7 10-9 14-2 3 0 4 2 1 3-3 5-6 7-9 5-6 11-11 16-16 3-4 5-6 9-9 3-2 11-9 14-8 1 1 1 4 1 6 0 3 0 6 0 8 0 10 2 15-4 24-7 10-6 12-4 25 3 16-5 15-10 27-1 4-2 6 0 10 6 9 18 2 18 19 0 4 0 8 0 13 0 20 19 25 35 31 39 13 72 18 113 18 3 0 34 0 28 7-3 4-29 5-34 6-16 1-41 2-57 0-27-2-49-5-76-5-8 0-20-1-27 1-13 5-17 3-30 1-9-2-12-2-21-2-13 0-16 3-28 5-15 3-17-5-30-5-6 0-13 0-19 0-21-1-33-2-54 1-20 2-28 1-48 0-8-1-36 0-45 2-6 1-5-10 13-14 25-5 46 0 71-5 13-2 23-4 36-5 12-2 26-3 36-11 5-3 6-6 6-11 1-13 0-25 1-37 0-14 23-18 8-37-9-10-7-9-2-20 1-2 2-5 3-7 2-4 3-6 5-9 4-5 6-9 10-14 1-1 6-6 3-8-1-1-6 5-7 6-4 4-8 9-12 14-7 6-8 7-8-3 0-5-1-14 1-19 6-12 17-18 3-32-6-6-8-7-11-14-5-13-14-23-26-31z m119-292c27 25 22 70-11 88-26-25-21-70 11-88z m-63 53c31 3 49 35 37 63-31-3-49-35-37-63z m120 16c-2 30-32 50-61 40 1-31 32-51 61-40z m15 46c27 25 21 69-11 87-27-25-21-69 11-87z m-60 69c30 3 48 35 36 63-30-3-49-36-36-63z m117-1c-2 31-33 51-61 40 1-30 32-50 61-40z m144-45c17 33-4 73-41 79-16-33 5-73 41-79z m-77 27c27 14 33 51 12 73-27-14-33-51-12-73z m106 57c-12 28-48 37-71 17 12-28 48-37 71-17z m-593-71c36 5 57 45 41 78-36-5-57-45-41-78z m-44 68c27-15 61 1 67 31-27 15-61-1-67-31z m-1 72c14-27 51-32 72-10-14 27-51 32-72 10z m131-116c16 25 2 60-27 67-16-25-3-60 27-67z m42-60c37 6 58 45 42 78-37-5-58-45-42-78z m44 111c-27 14-59-2-65-32 21-11 47-4 60 16 3 5 4 9 6 14 0 1 0 1-1 2z m42-87c16 26 3 60-27 68-16-26-2-60 27-68z m-180-96c37 6 58 45 42 78-37-5-58-44-42-78z m-21 80c27-15 60 1 66 31-27 14-60-1-66-31z m107-56c16 26 2 60-27 68-16-26-3-60 27-68z m53-34c31 5 49 38 35 66-31-4-48-38-35-66z m-18 67c23-12 51 1 56 27-22 12-51-1-56-27z m88 90c14 21 2 51-23 57-13-22-2-51 23-57z m213-11c14 22 2 51-23 58-14-22-2-51 23-58z m-123-53c5 26-17 50-43 47-5-26 16-50 43-47z m111-38c16 33-5 73-41 78-16-33 4-73 41-78z m-54-42c21 21 14 57-12 70-21-22-14-57 12-70z m93 38c21 22 15 57-12 70-21-21-14-57 12-70z m64-1c10 28-11 58-41 59-9-28 11-58 41-59z m-427-58c-10 28 11 58 41 59 9-29-11-58-41-59z m67-17c27-15 60 1 66 31-27 15-60-1-66-31z m161-12c13 22 2 52-23 58-14-22-3-51 23-58z m74 6c21 16 21 47 0 62-21-15-21-46 0-62z m102 34c13 22 2 51-23 57-14-22-2-51 23-57z m-68-15c22 13 25 45 6 62-22-13-26-44-6-62z m-368-12c23 13 26 44 7 62-22-13-26-45-7-62z m91-48c16 26 2 60-27 68-16-26-3-60 27-68z m43-14c30 4 49 36 37 64-31-4-49-36-37-64z m84-12c13 22 2 51-23 58-14-22-2-52 23-58z m87 25c20 22 14 57-13 70-20-21-14-57 13-70z m223 346c-27 15-61 0-67-30 27-15 61 0 67 30z" fill="#ff851b" data-fill-palette-color="accent"></path></g></svg>
                                    </g>
                                </svg>
                            </g>
                        </svg>
                    </g>
                    <defs></defs>
                </svg>
                <rect width="395.5199999999999" height="121.32291260694126" fill="none"
                    stroke="none" visibility="hidden"></rect>
            </g>
        </svg>
    </g>
</svg>